<svg xmlns="http://www.w3.org/2000/svg" viewBox="0 0 960 540" role="img" aria-label="LoreRelay main UI">
  <defs>
    <linearGradient id="bg" x1="0" y1="0" x2="1" y2="1">
      <stop offset="0%" stop-color="#0f1419"/>
      <stop offset="100%" stop-color="#1a2332"/>
    </linearGradient>
    <linearGradient id="glass" x1="0" y1="0" x2="0" y2="1">
      <stop offset="0%" stop-color="#ffffff18"/>
      <stop offset="100%" stop-color="#ffffff08"/>
    </linearGradient>
  </defs>
  <rect width="960" height="540" fill="url(#bg)"/>
  <rect x="24" y="24" width="612" height="492" rx="16" fill="url(#glass)" stroke="#ffffff22"/>
  <text x="48" y="58" fill="#e8edf4" font-family="Segoe UI, sans-serif" font-size="18" font-weight="600">⚔️ Adventure Log</text>
  <rect x="48" y="78" width="520" height="72" rx="10" fill="#00000033" stroke="#5b9fd444"/>
  <text x="64" y="108" fill="#7cb3ff" font-size="13" font-family="Segoe UI, sans-serif">GM</text>
  <text x="64" y="130" fill="#c8d4e4" font-size="12" font-family="Segoe UI, sans-serif">苔と埃の匂いが鼻をつく。松明の炎が壁の彫りを揺らめかせる…</text>
  <rect x="48" y="168" width="360" height="36" rx="8" fill="#5b9fd433" stroke="#5b9fd4"/>
  <text x="64" y="191" fill="#e8edf4" font-size="11" font-family="Segoe UI, sans-serif">松明を掲げ、奥へ続く回廊を慎重に進む</text>
  <rect x="48" y="220" width="520" height="40" rx="8" fill="#00000044" stroke="#ffffff18"/>
  <text x="64" y="245" fill="#8b9cb3" font-size="11" font-family="Segoe UI, sans-serif">Free input…</text>
  <rect x="660" y="24" width="276" height="492" rx="16" fill="url(#glass)" stroke="#ffffff22"/>
  <text x="684" y="58" fill="#e8edf4" font-size="13" font-weight="600" font-family="Segoe UI, sans-serif">Adventure Status</text>
  <text x="684" y="92" fill="#8b9cb3" font-size="11" font-family="Segoe UI, sans-serif">📍 地下聖堂・前室</text>
  <text x="684" y="114" fill="#8b9cb3" font-size="11" font-family="Segoe UI, sans-serif">❤️ HP 18/20</text>
  <rect x="684" y="140" width="228" height="8" rx="4" fill="#00000055"/>
  <rect x="684" y="140" width="180" height="8" rx="4" fill="#4ade80"/>
  <text x="684" y="178" fill="#c9a227" font-size="10" font-family="Segoe UI, sans-serif">🔍 Inspector · 📖 Lorebook · 🎬 Director</text>
  <rect x="684" y="200" width="228" height="120" rx="8" fill="#00000033" stroke="#ffffff15"/>
  <text x="700" y="224" fill="#7cb3ff" font-size="10" font-family="Consolas, monospace">turn: t-0042</text>
  <text x="700" y="244" fill="#a8d8a8" font-size="10" font-family="Consolas, monospace">dice: 1d20 → 14</text>
  <text x="700" y="264" fill="#c8d4e4" font-size="10" font-family="Consolas, monospace">patch: status.location</text>
  <text x="48" y="510" fill="#5b9fd4" font-size="11" font-family="Segoe UI, sans-serif">LoreRelay v1.0 — Local-first AI Game Master UI</text>
</svg>